# xmcd
#
# Track frame offsets:
#	150
#	16293
#	31038
#	48015
#	64868
#	87633
#	107983
#	126593
#	148138
#	164278
#	183485
#	201718
#
# Disc length: 2872 seconds
#
# Revision: 1
# Processed by: cddbd v1.5.2PL0 Copyright (c) Steve Scherf et al.
# Submitted via: audiograbber 1.83.01
#
DISCID=b20b360c
DTITLE=Reiner Schöne - Gnadenlos Verliebt
DYEAR=1995
DGENRE=Blues
TTITLE0=Melanie
TTITLE1=Werd ich noch jung sein wenn ich älter bin
TTITLE2=Sex und Lügen
TTITLE3=Goodbye Marx, goodbye Aquarius
TTITLE4=Gnadenlos verliebt
TTITLE5=All The Love In My Heart
TTITLE6=Germany ruft
TTITLE7=Staub im Wind
TTITLE8=Abschiedskuss
TTITLE9=Mitten in L.A.
TTITLE10=Lieben ist gesund
TTITLE11=Liebe, die nie stirbt
EXTD=Original
EXTT0=
EXTT1=
EXTT2=
EXTT3=
EXTT4=
EXTT5=
EXTT6=
EXTT7=
EXTT8=
EXTT9=
EXTT10=
EXTT11=
PLAYORDER=
